<svg width="29" height="28" viewBox="0 0 29 28" fill="none" xmlns="http://www.w3.org/2000/svg">
<path fill-rule="evenodd" clip-rule="evenodd" d="M14.6664 0.285645C22.2406 0.285645 28.3807 6.42574 28.3807 13.9999C28.3807 21.5741 22.2406 27.7142 14.6664 27.7142C7.09224 27.7142 0.952148 21.5741 0.952148 13.9999C0.952148 6.42574 7.09224 0.285645 14.6664 0.285645ZM7.43014 7.90591C8.88085 7.52895 14.6609 7.52895 14.6609 7.52895C14.6609 7.52895 20.4523 7.52897 21.903 7.92877C22.6912 8.13438 23.3193 8.76255 23.525 9.55073C23.9248 11.0014 23.9134 14.0172 23.9134 14.0172C23.9134 14.0172 23.9133 17.0214 23.525 18.4607C23.3193 19.2603 22.6912 19.8771 21.903 20.0941C20.4523 20.4711 14.6609 20.4711 14.6609 20.4711C14.6609 20.4711 8.89227 20.4711 7.43014 20.0827C6.64196 19.8657 6.01378 19.2375 5.79675 18.4493C5.41979 17.0214 5.41978 14.0057 5.41978 14.0057C5.41978 14.0057 5.41979 11.0014 5.79675 9.55073C6.01378 8.76255 6.65338 8.12295 7.43014 7.90591ZM17.6309 14.0057L12.8217 11.23V16.77L17.6309 14.0057Z" fill="white"/>
</svg>
